<svg width="130" height="130" viewBox="0 0 130 130" fill="none" xmlns="http://www.w3.org/2000/svg">
<rect width="130" height="130" fill="black"/>
<path d="M45.587 57.0202L65.0095 37.6056L84.4399 57.036L95.7348 45.7332L65.0095 15L34.2842 45.7253L45.587 57.0202Z" fill="#F3BA2F"/>
<path d="M15 65.0037L26.2987 53.705L37.5973 65.0037L26.2987 76.3023L15 65.0037Z" fill="#F3BA2F"/>
<path d="M45.5874 72.9834L65.0099 92.4058L84.4403 72.9755L95.7431 84.2625L95.7352 84.2704L65.0099 115.004L34.2846 84.2862L34.2688 84.2704L45.5874 72.9834Z" fill="#F3BA2F"/>
<path d="M92.4026 65.0063L103.701 53.7077L115 65.0063L103.701 76.305L92.4026 65.0063Z" fill="#F3BA2F"/>
<path d="M76.471 64.998L65.0103 53.5293L56.5351 62.0044L55.5557 62.9759L53.5495 64.9822L53.5337 64.998L53.5495 65.0217L65.0103 76.4745L76.471 65.0059L76.4789 64.998H76.471Z" fill="#F3BA2F"/>
</svg>
